<?xml version="1.0" encoding="UTF-8"?>
<svg id="Livello_1" data-name="Livello 1" xmlns="http://www.w3.org/2000/svg" viewBox="0 0 747.45 759.03">
  <defs>
  </defs>
  <g id="Icon_feather-menu" data-name="Icon feather-menu">
    <path class="cls-1" d="m694.39,747.42c-13.58,0-27.15-5.18-37.52-15.55L15.56,90.58C-5.16,69.87-5.16,36.27,15.56,15.55s54.31-20.73,75.03,0l641.31,641.29c20.73,20.71,20.73,54.32,0,75.03-10.36,10.36-23.94,15.55-37.52,15.55Z"/>
    <path class="cls-1" d="m53.06,759.03c-13.58,0-27.15-5.18-37.52-15.55-20.73-20.71-20.73-54.32,0-75.03L656.86,27.14c20.73-20.73,54.31-20.73,75.03,0,20.73,20.71,20.73,54.32,0,75.03L90.58,743.48c-10.36,10.36-23.94,15.55-37.52,15.55Z"/>
  </g>
</svg>