<?xml version="1.0" encoding="utf-8"?>
<!-- Generator: Adobe Illustrator 27.8.0, SVG Export Plug-In . SVG Version: 6.00 Build 0)  -->
<svg version="1.1" id="Livello_1" xmlns="http://www.w3.org/2000/svg" xmlns:xlink="http://www.w3.org/1999/xlink" x="0px" y="0px"
	 viewBox="0 0 747.8 356.1" style="enable-background:new 0 0 747.8 356.1;" xml:space="preserve">
<g id="Livello_2_00000037671348118304666320000005230028921411021701_">
	<path d="M434.3,59.4c0-2.2-2.4-3.5-4.3-2.5c-4.9,2.8-10.6,5-15.8,6.5c-8.8,2.6-18,2.2-27.1,2.4c-10.4,0.3-22.4,1.7-28.2,11.7
		c-7.8,13.3,6.3,21.5,6.9,34.2c1.3,25.3,0.9,33.9,0.1,50.7c-0.9,17.2-0.7,34.5-0.2,51.8c0.4,12.4-0.1,24.7,0.1,37.1
		c0.1,6.6,2.7,18-4.3,22c-2,1.2-4.4,1.5-6.6,2.2c-3,1-6,3.2-6.4,6.3c-0.2,2.1,0.8,4.2,2.3,5.6c2.5,2.2,6,2.7,9.2,2.6h80
		c3.2,0.1,6.7-0.3,9.2-2.6c1.6-1.4,2.6-3.5,2.3-5.6c-0.4-3.1-3.4-5.3-6.4-6.3c-2.2-0.7-4.6-1-6.6-2.2c-4.2-2.4-4.3-7.8-4.4-12.6
		c-0.1-11.7,0-23.4,0-35.1v-36.8c0.1-29.1,0-27.7,0-56.5c0-1.6-0.1-16.4,0-18c0.1-1.3-0.1-12.1,0-15.8v-6.1L434.3,59.4L434.3,59.4z"
		/>
	<path d="M558.9,256.7c-0.4,8.4-0.1,16.8,1.3,25c1.4,7.9,3.6,15.7,7.1,23c4.4,9,10.6,22.3,14.2,31.6c1.5,4,2.4,8.9-0.2,12.2
		c-1.8,2.3-4.8,3.5-7.7,3.9c-23.9,3.4-40.8,2.9-61.5,3.6c-5.9,0.2-12.2,0.1-17.6-1.9c-3-1.1-4.4-4.3-4.1-7.6
		c1.4-22.4,2.1-33.7,2.4-50.8c0.3-19.7,0.4-39.4,0.4-59.1c-0.1-39-0.9-78.1-1.6-117.1c-0.2-12.2-1.8-26.6-12.5-32.4
		c-2.9-1.6-6.6-2.5-7.3-6.4c-0.4-2.1,0.4-4.4,1.8-6c3.1-3.5,7.8-4.1,12.2-4.6c23.1-2.6,46.2-5.2,69.4-7.8c1.5-0.2,3.3-0.3,4.4,0.8
		c0.9,0.9,1,2.4,1,3.7c0,11.4-0.1,22.7-0.1,34.1c8.3-15.4,23.1-26.6,39.4-32.8s34.2-7.6,51.6-6.4c27.5,1.8,55.8,10.7,74.4,31
		c13.3,14.6,20.6,34.1,21.7,53.8s-3.9,39.4-12.7,57.1c-14.4,28.8-40,52.6-70.9,61.4c-40.7,11.6-75.5-6.8-103.3-35.8L558.9,256.7z
		 M627.1,70.8c-40.8,0-66.8,33.9-66.8,67.9v85.4C709.4,248.8,698.8,70.8,627.1,70.8z"/>
	<path d="M58.7,181.9c13.9,21.4,44,39.6,64.7,50.6c112.5,60,171.4-14,93.8-44.6c-43.8-17.2-96.7-26.4-136.8-43.1
		C11.7,116,25.5,43.2,98.2,22.9c20.8-5.8,43.8-7.7,64-7.7c24,0,48.1,0.4,72,3.8c21.9,3.2,46,4.7,65.5,15.7c3.3,1.9,6.6,4,8.8,7.2
		c5.2,7.6,1.9,18.1-3.1,25.9c-8.3,13.1-21.8,23.8-37.2,25c-5.1,0.4-10.7-0.4-14.4-4c-2.6-2.6-3.8-6.1-5.4-9.4
		c-8-16.7-26.3-26.3-42.1-34.2c-98.8-49.1-171,5.5-89.6,37.3c30.6,11.9,75.7,22.4,112.3,32.9c38.1,10.9,67.4,34.2,65.1,73.5
		c-3.7,62.2-80.3,77.7-134.8,77.7c-50.9,0-102.1-10.5-145.2-38.1c-3.8-2.4-7.6-5.1-10.4-8.8c-8.8-11.9-0.2-31.7,7.9-41.8
		c6.2-7.7,20.4-19.6,31.2-17.7c4,0.7,7,4.1,8.9,7.7C54.2,172.6,55.9,177.4,58.7,181.9L58.7,181.9z"/>
	<path d="M398.4,48.6c4.5-0.1,9-0.4,13.5-1.2c14.3-2.7,22.8-19.8,14.5-32.2c-4-6-10.6-9.8-17.5-12.2c-19.4-6.6-44.3-2.4-57.6,14
		c-5.8,7.1-8.4,16.2-9.4,25.2c-0.8,6.7-1.3,14.2-0.9,21.3c0.1,2.6,3.3,3.9,5.2,2.1c0.3-0.3,0.6-0.6,0.9-0.9
		c6.9-6.4,15.3-11,24.2-13.6C380.2,48.5,389.3,48.9,398.4,48.6L398.4,48.6z"/>
</g>
</svg>
